<mxfile host="app.diagrams.net" modified="2023-10-12T13:49:37.598Z" agent="Mozilla/5.0 (Macintosh; Intel Mac OS X 10_15_7) AppleWebKit/537.36 (KHTML, like Gecko) Chrome/117.0.0.0 Safari/537.36" etag="dtDlY6bS4FYDz8ZL1h3r" version="22.0.4" type="github">
  <diagram id="C5RBs43oDa-KdzZeNtuy" name="Page-1">
    <mxGraphModel dx="1306" dy="752" grid="1" gridSize="10" guides="1" tooltips="1" connect="1" arrows="1" fold="1" page="1" pageScale="1" pageWidth="827" pageHeight="1169" math="0" shadow="0">
      <root>
        <mxCell id="WIyWlLk6GJQsqaUBKTNV-0" />
        <mxCell id="WIyWlLk6GJQsqaUBKTNV-1" parent="WIyWlLk6GJQsqaUBKTNV-0" />
        <mxCell id="WIyWlLk6GJQsqaUBKTNV-2" value="" style="rounded=0;html=1;jettySize=auto;orthogonalLoop=1;fontSize=11;endArrow=block;endFill=0;endSize=8;strokeWidth=1;shadow=0;labelBackgroundColor=none;edgeStyle=orthogonalEdgeStyle;" parent="WIyWlLk6GJQsqaUBKTNV-1" source="WIyWlLk6GJQsqaUBKTNV-3" target="WIyWlLk6GJQsqaUBKTNV-6" edge="1">
          <mxGeometry relative="1" as="geometry" />
        </mxCell>
        <mxCell id="WIyWlLk6GJQsqaUBKTNV-3" value="Start" style="rounded=1;whiteSpace=wrap;html=1;fontSize=12;glass=0;strokeWidth=1;shadow=0;" parent="WIyWlLk6GJQsqaUBKTNV-1" vertex="1">
          <mxGeometry x="120" y="80" width="160" height="40" as="geometry" />
        </mxCell>
        <mxCell id="WIyWlLk6GJQsqaUBKTNV-4" value="Correct Command" style="rounded=0;html=1;jettySize=auto;orthogonalLoop=1;fontSize=11;endArrow=block;endFill=0;endSize=8;strokeWidth=1;shadow=0;labelBackgroundColor=none;edgeStyle=orthogonalEdgeStyle;" parent="WIyWlLk6GJQsqaUBKTNV-1" source="WIyWlLk6GJQsqaUBKTNV-6" target="WIyWlLk6GJQsqaUBKTNV-10" edge="1">
          <mxGeometry y="60" relative="1" as="geometry">
            <mxPoint as="offset" />
          </mxGeometry>
        </mxCell>
        <mxCell id="WIyWlLk6GJQsqaUBKTNV-5" value="Incorrect Command" style="edgeStyle=orthogonalEdgeStyle;rounded=0;html=1;jettySize=auto;orthogonalLoop=1;fontSize=11;endArrow=block;endFill=0;endSize=8;strokeWidth=1;shadow=0;labelBackgroundColor=none;" parent="WIyWlLk6GJQsqaUBKTNV-1" source="WIyWlLk6GJQsqaUBKTNV-6" target="WIyWlLk6GJQsqaUBKTNV-7" edge="1">
          <mxGeometry x="0.0323" y="11" relative="1" as="geometry">
            <mxPoint x="-5" y="1" as="offset" />
          </mxGeometry>
        </mxCell>
        <mxCell id="WIyWlLk6GJQsqaUBKTNV-6" value="Internsctl command User&#39;s Choice?" style="rhombus;whiteSpace=wrap;html=1;shadow=0;fontFamily=Helvetica;fontSize=12;align=center;strokeWidth=1;spacing=6;spacingTop=-4;" parent="WIyWlLk6GJQsqaUBKTNV-1" vertex="1">
          <mxGeometry x="130" y="170" width="140" height="90" as="geometry" />
        </mxCell>
        <mxCell id="WIyWlLk6GJQsqaUBKTNV-7" value="Error: Invalid command or option. Use &#39;internsctl --help&#39; for usage." style="rounded=1;whiteSpace=wrap;html=1;fontSize=12;glass=0;strokeWidth=1;shadow=0;" parent="WIyWlLk6GJQsqaUBKTNV-1" vertex="1">
          <mxGeometry x="420" y="195" width="270" height="40" as="geometry" />
        </mxCell>
        <mxCell id="WIyWlLk6GJQsqaUBKTNV-9" value="Yes" style="edgeStyle=orthogonalEdgeStyle;rounded=0;html=1;jettySize=auto;orthogonalLoop=1;fontSize=11;endArrow=block;endFill=0;endSize=8;strokeWidth=1;shadow=0;labelBackgroundColor=none;" parent="WIyWlLk6GJQsqaUBKTNV-1" source="WIyWlLk6GJQsqaUBKTNV-10" target="WIyWlLk6GJQsqaUBKTNV-12" edge="1">
          <mxGeometry y="10" relative="1" as="geometry">
            <mxPoint as="offset" />
          </mxGeometry>
        </mxCell>
        <mxCell id="WIyWlLk6GJQsqaUBKTNV-10" value="--help" style="rhombus;whiteSpace=wrap;html=1;shadow=0;fontFamily=Helvetica;fontSize=12;align=center;strokeWidth=1;spacing=6;spacingTop=-4;" parent="WIyWlLk6GJQsqaUBKTNV-1" vertex="1">
          <mxGeometry x="130" y="290" width="140" height="80" as="geometry" />
        </mxCell>
        <mxCell id="WIyWlLk6GJQsqaUBKTNV-12" value="&lt;div&gt;Usage: internsctl [OPTIONS]&lt;/div&gt;&lt;div&gt;Custom Linux Command for Interns Operations&lt;/div&gt;&lt;div&gt;Options: ...&lt;/div&gt;" style="rounded=1;whiteSpace=wrap;html=1;fontSize=12;glass=0;strokeWidth=1;shadow=0;" parent="WIyWlLk6GJQsqaUBKTNV-1" vertex="1">
          <mxGeometry x="320" y="310" width="350" height="40" as="geometry" />
        </mxCell>
        <mxCell id="HacrxvTfYygHv3SHw1Ex-1" style="edgeStyle=orthogonalEdgeStyle;rounded=0;orthogonalLoop=1;jettySize=auto;html=1;exitX=0;exitY=0.5;exitDx=0;exitDy=0;entryX=0;entryY=0.25;entryDx=0;entryDy=0;" edge="1" parent="WIyWlLk6GJQsqaUBKTNV-1" source="WIyWlLk6GJQsqaUBKTNV-3" target="WIyWlLk6GJQsqaUBKTNV-3">
          <mxGeometry relative="1" as="geometry" />
        </mxCell>
        <mxCell id="HacrxvTfYygHv3SHw1Ex-5" value="" style="rounded=0;html=1;jettySize=auto;orthogonalLoop=1;fontSize=11;endArrow=block;endFill=0;endSize=8;strokeWidth=1;shadow=0;labelBackgroundColor=none;edgeStyle=orthogonalEdgeStyle;" edge="1" parent="WIyWlLk6GJQsqaUBKTNV-1" source="WIyWlLk6GJQsqaUBKTNV-10" target="HacrxvTfYygHv3SHw1Ex-4">
          <mxGeometry x="0.3333" y="20" relative="1" as="geometry">
            <mxPoint as="offset" />
            <mxPoint x="200" y="370" as="sourcePoint" />
            <mxPoint x="200" y="430" as="targetPoint" />
          </mxGeometry>
        </mxCell>
        <mxCell id="HacrxvTfYygHv3SHw1Ex-11" value="" style="edgeStyle=orthogonalEdgeStyle;rounded=0;orthogonalLoop=1;jettySize=auto;html=1;" edge="1" parent="WIyWlLk6GJQsqaUBKTNV-1" source="HacrxvTfYygHv3SHw1Ex-4" target="HacrxvTfYygHv3SHw1Ex-10">
          <mxGeometry relative="1" as="geometry" />
        </mxCell>
        <mxCell id="HacrxvTfYygHv3SHw1Ex-4" value="--version" style="rhombus;whiteSpace=wrap;html=1;shadow=0;fontFamily=Helvetica;fontSize=12;align=center;strokeWidth=1;spacing=6;spacingTop=-4;" vertex="1" parent="WIyWlLk6GJQsqaUBKTNV-1">
          <mxGeometry x="130" y="400" width="140" height="80" as="geometry" />
        </mxCell>
        <mxCell id="HacrxvTfYygHv3SHw1Ex-10" value="&lt;div&gt;internsctl v0.1.0&lt;/div&gt;" style="rounded=1;whiteSpace=wrap;html=1;shadow=0;strokeWidth=1;spacing=6;spacingTop=-4;" vertex="1" parent="WIyWlLk6GJQsqaUBKTNV-1">
          <mxGeometry x="320" y="410" width="290" height="60" as="geometry" />
        </mxCell>
        <mxCell id="HacrxvTfYygHv3SHw1Ex-12" value="No" style="text;html=1;align=center;verticalAlign=middle;resizable=0;points=[];autosize=1;strokeColor=none;fillColor=none;" vertex="1" parent="WIyWlLk6GJQsqaUBKTNV-1">
          <mxGeometry x="200" y="368" width="40" height="30" as="geometry" />
        </mxCell>
        <mxCell id="HacrxvTfYygHv3SHw1Ex-18" value="" style="rounded=0;html=1;jettySize=auto;orthogonalLoop=1;fontSize=11;endArrow=block;endFill=0;endSize=8;strokeWidth=1;shadow=0;labelBackgroundColor=none;edgeStyle=orthogonalEdgeStyle;" edge="1" parent="WIyWlLk6GJQsqaUBKTNV-1" source="HacrxvTfYygHv3SHw1Ex-20" target="HacrxvTfYygHv3SHw1Ex-23">
          <mxGeometry y="60" relative="1" as="geometry">
            <mxPoint as="offset" />
          </mxGeometry>
        </mxCell>
        <mxCell id="HacrxvTfYygHv3SHw1Ex-19" value="Yes" style="edgeStyle=orthogonalEdgeStyle;rounded=0;html=1;jettySize=auto;orthogonalLoop=1;fontSize=11;endArrow=block;endFill=0;endSize=8;strokeWidth=1;shadow=0;labelBackgroundColor=none;" edge="1" parent="WIyWlLk6GJQsqaUBKTNV-1" source="HacrxvTfYygHv3SHw1Ex-20" target="HacrxvTfYygHv3SHw1Ex-21">
          <mxGeometry x="0.0323" y="11" relative="1" as="geometry">
            <mxPoint x="-5" y="1" as="offset" />
          </mxGeometry>
        </mxCell>
        <mxCell id="HacrxvTfYygHv3SHw1Ex-20" value="cpu getinfo" style="rhombus;whiteSpace=wrap;html=1;shadow=0;fontFamily=Helvetica;fontSize=12;align=center;strokeWidth=1;spacing=6;spacingTop=-4;" vertex="1" parent="WIyWlLk6GJQsqaUBKTNV-1">
          <mxGeometry x="130" y="510" width="140" height="90" as="geometry" />
        </mxCell>
        <mxCell id="HacrxvTfYygHv3SHw1Ex-21" value="&lt;pre style=&quot;margin-top: 0px; margin-bottom: calc(1.5em); padding: var(--su12); border: 0px; font-variant-numeric: inherit; font-variant-east-asian: inherit; font-variant-alternates: inherit; font-variant-position: inherit; font-stretch: inherit; line-height: var(--lh-md); font-family: var(--ff-mono); font-optical-sizing: inherit; font-kerning: inherit; font-feature-settings: inherit; font-variation-settings: inherit; font-size: var(--fs-body1); vertical-align: baseline; box-sizing: inherit; width: auto; max-height: 600px; overflow: auto; background-color: var(--highlight-bg); border-radius: var(--br-md); overflow-wrap: normal; color: var(--highlight-color); text-align: left;&quot;&gt;&lt;code style=&quot;margin: 0px; padding: 0px; border: 0px; font-style: inherit; font-variant: inherit; font-weight: inherit; font-stretch: inherit; line-height: inherit; font-family: var(--ff-mono); font-optical-sizing: inherit; font-kerning: inherit; font-feature-settings: inherit; font-variation-settings: inherit; font-size: var(--_pr-code-fs); vertical-align: baseline; box-sizing: inherit; background-color: transparent; color: var(--black-800); border-radius: 0px;&quot;&gt;Architecture:          x86_64&lt;br&gt;CPU op-mode(s):        32-bit, 64-bit&lt;br&gt;Byte Order:            Little Endian&lt;br&gt;CPU(s):                4&lt;br&gt;On-line CPU(s) list:   0-3...&lt;br&gt;&lt;/code&gt;&lt;/pre&gt;" style="rounded=1;whiteSpace=wrap;html=1;fontSize=12;glass=0;strokeWidth=1;shadow=0;arcSize=18;" vertex="1" parent="WIyWlLk6GJQsqaUBKTNV-1">
          <mxGeometry x="420" y="490" width="380" height="90" as="geometry" />
        </mxCell>
        <mxCell id="HacrxvTfYygHv3SHw1Ex-22" value="Yes" style="edgeStyle=orthogonalEdgeStyle;rounded=0;html=1;jettySize=auto;orthogonalLoop=1;fontSize=11;endArrow=block;endFill=0;endSize=8;strokeWidth=1;shadow=0;labelBackgroundColor=none;" edge="1" parent="WIyWlLk6GJQsqaUBKTNV-1" source="HacrxvTfYygHv3SHw1Ex-23" target="HacrxvTfYygHv3SHw1Ex-24">
          <mxGeometry y="10" relative="1" as="geometry">
            <mxPoint as="offset" />
          </mxGeometry>
        </mxCell>
        <mxCell id="HacrxvTfYygHv3SHw1Ex-23" value="memory getinfo" style="rhombus;whiteSpace=wrap;html=1;shadow=0;fontFamily=Helvetica;fontSize=12;align=center;strokeWidth=1;spacing=6;spacingTop=-4;" vertex="1" parent="WIyWlLk6GJQsqaUBKTNV-1">
          <mxGeometry x="130" y="630" width="140" height="80" as="geometry" />
        </mxCell>
        <mxCell id="HacrxvTfYygHv3SHw1Ex-24" value="&lt;pre style=&quot;margin-top: 0px; margin-bottom: calc(1.5em); padding: var(--su12); border: 0px; font-variant-numeric: inherit; font-variant-east-asian: inherit; font-variant-alternates: inherit; font-variant-position: inherit; font-stretch: inherit; line-height: var(--lh-md); font-family: var(--ff-mono); font-optical-sizing: inherit; font-kerning: inherit; font-feature-settings: inherit; font-variation-settings: inherit; font-size: var(--fs-body1); vertical-align: baseline; box-sizing: inherit; width: auto; max-height: 600px; overflow: auto; background-color: var(--highlight-bg); border-radius: var(--br-md); --_cb-line-numbers-bg: var(--black-050); color: var(--highlight-color); overflow-wrap: normal; text-align: left;&quot; class=&quot;lang-bash s-code-block&quot;&gt;&lt;code style=&quot;margin: 0px; padding: 0px; border: 0px; font-style: inherit; font-variant: inherit; font-weight: inherit; font-stretch: inherit; line-height: inherit; font-family: inherit; font-optical-sizing: inherit; font-kerning: inherit; font-feature-settings: inherit; font-variation-settings: inherit; font-size: var(--_pr-code-fs); vertical-align: baseline; box-sizing: inherit; background-color: transparent;&quot; class=&quot;hljs language-bash&quot;&gt;            total       used       free     shared    buffers     cached&lt;br/&gt;Mem:       7264256    1010952    6253304          0     371892     189088&lt;br/&gt;-/+ buffers/cache:     449972    6814284&lt;br/&gt;Swap:      8126456         28    8126428&lt;br/&gt;&lt;/code&gt;&lt;/pre&gt;&lt;div&gt;&lt;code style=&quot;margin: 0px; padding: 0px; border: 0px; font-style: inherit; font-variant: inherit; font-weight: inherit; font-stretch: inherit; line-height: inherit; font-family: inherit; font-optical-sizing: inherit; font-kerning: inherit; font-feature-settings: inherit; font-variation-settings: inherit; font-size: var(--_pr-code-fs); vertical-align: baseline; box-sizing: inherit; background-color: transparent;&quot; class=&quot;hljs language-bash&quot;&gt;&lt;br&gt;&lt;/code&gt;&lt;/div&gt;" style="rounded=1;whiteSpace=wrap;html=1;fontSize=12;glass=0;strokeWidth=1;shadow=0;" vertex="1" parent="WIyWlLk6GJQsqaUBKTNV-1">
          <mxGeometry x="320" y="600" width="420" height="90" as="geometry" />
        </mxCell>
        <mxCell id="HacrxvTfYygHv3SHw1Ex-25" value="" style="rounded=0;html=1;jettySize=auto;orthogonalLoop=1;fontSize=11;endArrow=block;endFill=0;endSize=8;strokeWidth=1;shadow=0;labelBackgroundColor=none;edgeStyle=orthogonalEdgeStyle;" edge="1" parent="WIyWlLk6GJQsqaUBKTNV-1" source="HacrxvTfYygHv3SHw1Ex-23" target="HacrxvTfYygHv3SHw1Ex-27">
          <mxGeometry x="0.3333" y="20" relative="1" as="geometry">
            <mxPoint as="offset" />
            <mxPoint x="200" y="710" as="sourcePoint" />
            <mxPoint x="200" y="770" as="targetPoint" />
          </mxGeometry>
        </mxCell>
        <mxCell id="HacrxvTfYygHv3SHw1Ex-26" value="" style="edgeStyle=orthogonalEdgeStyle;rounded=0;orthogonalLoop=1;jettySize=auto;html=1;" edge="1" parent="WIyWlLk6GJQsqaUBKTNV-1" source="HacrxvTfYygHv3SHw1Ex-27" target="HacrxvTfYygHv3SHw1Ex-28">
          <mxGeometry relative="1" as="geometry" />
        </mxCell>
        <mxCell id="HacrxvTfYygHv3SHw1Ex-27" value="user create &amp;lt;username&amp;gt;" style="rhombus;whiteSpace=wrap;html=1;shadow=0;fontFamily=Helvetica;fontSize=12;align=center;strokeWidth=1;spacing=6;spacingTop=-4;" vertex="1" parent="WIyWlLk6GJQsqaUBKTNV-1">
          <mxGeometry x="130" y="740" width="140" height="80" as="geometry" />
        </mxCell>
        <mxCell id="HacrxvTfYygHv3SHw1Ex-28" value="&lt;div&gt;User create created with a home directory.&lt;/div&gt;" style="rounded=1;whiteSpace=wrap;html=1;shadow=0;strokeWidth=1;spacing=6;spacingTop=-4;" vertex="1" parent="WIyWlLk6GJQsqaUBKTNV-1">
          <mxGeometry x="320" y="750" width="290" height="60" as="geometry" />
        </mxCell>
        <mxCell id="HacrxvTfYygHv3SHw1Ex-29" value="No" style="text;html=1;align=center;verticalAlign=middle;resizable=0;points=[];autosize=1;strokeColor=none;fillColor=none;" vertex="1" parent="WIyWlLk6GJQsqaUBKTNV-1">
          <mxGeometry x="200" y="708" width="40" height="30" as="geometry" />
        </mxCell>
        <mxCell id="HacrxvTfYygHv3SHw1Ex-33" value="No" style="rounded=0;html=1;jettySize=auto;orthogonalLoop=1;fontSize=11;endArrow=block;endFill=0;endSize=8;strokeWidth=1;shadow=0;labelBackgroundColor=none;edgeStyle=orthogonalEdgeStyle;" edge="1" parent="WIyWlLk6GJQsqaUBKTNV-1">
          <mxGeometry x="-0.3333" y="21" relative="1" as="geometry">
            <mxPoint as="offset" />
            <mxPoint x="199" y="480" as="sourcePoint" />
            <mxPoint x="199" y="510" as="targetPoint" />
          </mxGeometry>
        </mxCell>
        <mxCell id="HacrxvTfYygHv3SHw1Ex-36" value="Yes" style="text;html=1;align=center;verticalAlign=middle;resizable=0;points=[];autosize=1;strokeColor=none;fillColor=none;" vertex="1" parent="WIyWlLk6GJQsqaUBKTNV-1">
          <mxGeometry x="270" y="408" width="40" height="30" as="geometry" />
        </mxCell>
        <mxCell id="HacrxvTfYygHv3SHw1Ex-37" value="No" style="text;html=1;align=center;verticalAlign=middle;resizable=0;points=[];autosize=1;strokeColor=none;fillColor=none;" vertex="1" parent="WIyWlLk6GJQsqaUBKTNV-1">
          <mxGeometry x="210" y="590" width="40" height="30" as="geometry" />
        </mxCell>
        <mxCell id="HacrxvTfYygHv3SHw1Ex-38" value="" style="edgeStyle=orthogonalEdgeStyle;rounded=0;orthogonalLoop=1;jettySize=auto;html=1;" edge="1" parent="WIyWlLk6GJQsqaUBKTNV-1" source="HacrxvTfYygHv3SHw1Ex-39" target="HacrxvTfYygHv3SHw1Ex-40">
          <mxGeometry relative="1" as="geometry" />
        </mxCell>
        <mxCell id="HacrxvTfYygHv3SHw1Ex-39" value="user list" style="rhombus;whiteSpace=wrap;html=1;shadow=0;fontFamily=Helvetica;fontSize=12;align=center;strokeWidth=1;spacing=6;spacingTop=-4;" vertex="1" parent="WIyWlLk6GJQsqaUBKTNV-1">
          <mxGeometry x="130" y="850" width="140" height="80" as="geometry" />
        </mxCell>
        <mxCell id="HacrxvTfYygHv3SHw1Ex-40" value="&lt;div&gt;To list all regular users&lt;/div&gt;" style="rounded=1;whiteSpace=wrap;html=1;shadow=0;strokeWidth=1;spacing=6;spacingTop=-4;" vertex="1" parent="WIyWlLk6GJQsqaUBKTNV-1">
          <mxGeometry x="320" y="860" width="290" height="60" as="geometry" />
        </mxCell>
        <mxCell id="HacrxvTfYygHv3SHw1Ex-41" value="" style="rounded=0;html=1;jettySize=auto;orthogonalLoop=1;fontSize=11;endArrow=block;endFill=0;endSize=8;strokeWidth=1;shadow=0;labelBackgroundColor=none;edgeStyle=orthogonalEdgeStyle;" edge="1" parent="WIyWlLk6GJQsqaUBKTNV-1" source="HacrxvTfYygHv3SHw1Ex-43" target="HacrxvTfYygHv3SHw1Ex-45">
          <mxGeometry y="60" relative="1" as="geometry">
            <mxPoint as="offset" />
          </mxGeometry>
        </mxCell>
        <mxCell id="HacrxvTfYygHv3SHw1Ex-42" value="Yes" style="edgeStyle=orthogonalEdgeStyle;rounded=0;html=1;jettySize=auto;orthogonalLoop=1;fontSize=11;endArrow=block;endFill=0;endSize=8;strokeWidth=1;shadow=0;labelBackgroundColor=none;" edge="1" parent="WIyWlLk6GJQsqaUBKTNV-1" source="HacrxvTfYygHv3SHw1Ex-43">
          <mxGeometry x="0.0323" y="11" relative="1" as="geometry">
            <mxPoint x="-5" y="1" as="offset" />
            <mxPoint x="350" y="990" as="targetPoint" />
          </mxGeometry>
        </mxCell>
        <mxCell id="HacrxvTfYygHv3SHw1Ex-43" value="user list --sudo-only" style="rhombus;whiteSpace=wrap;html=1;shadow=0;fontFamily=Helvetica;fontSize=12;align=center;strokeWidth=1;spacing=6;spacingTop=-4;" vertex="1" parent="WIyWlLk6GJQsqaUBKTNV-1">
          <mxGeometry x="130" y="960" width="140" height="90" as="geometry" />
        </mxCell>
        <mxCell id="HacrxvTfYygHv3SHw1Ex-44" value="Yes" style="edgeStyle=orthogonalEdgeStyle;rounded=0;html=1;jettySize=auto;orthogonalLoop=1;fontSize=11;endArrow=block;endFill=0;endSize=8;strokeWidth=1;shadow=0;labelBackgroundColor=none;" edge="1" parent="WIyWlLk6GJQsqaUBKTNV-1" source="HacrxvTfYygHv3SHw1Ex-45" target="HacrxvTfYygHv3SHw1Ex-46">
          <mxGeometry y="10" relative="1" as="geometry">
            <mxPoint as="offset" />
          </mxGeometry>
        </mxCell>
        <mxCell id="HacrxvTfYygHv3SHw1Ex-45" value="file getinfo" style="rhombus;whiteSpace=wrap;html=1;shadow=0;fontFamily=Helvetica;fontSize=12;align=center;strokeWidth=1;spacing=6;spacingTop=-4;" vertex="1" parent="WIyWlLk6GJQsqaUBKTNV-1">
          <mxGeometry x="130" y="1080" width="140" height="80" as="geometry" />
        </mxCell>
        <mxCell id="HacrxvTfYygHv3SHw1Ex-46" value="&lt;pre style=&quot;margin-top: 0px; margin-bottom: calc(1.5em); padding: var(--su12); border: 0px; font-variant-numeric: inherit; font-variant-east-asian: inherit; font-variant-alternates: inherit; font-variant-position: inherit; font-stretch: inherit; line-height: var(--lh-md); font-family: var(--ff-mono); font-optical-sizing: inherit; font-kerning: inherit; font-feature-settings: inherit; font-variation-settings: inherit; font-size: var(--fs-body1); vertical-align: baseline; box-sizing: inherit; width: auto; max-height: 600px; overflow: auto; background-color: var(--highlight-bg); border-radius: var(--br-md); --_cb-line-numbers-bg: var(--black-050); color: var(--highlight-color); overflow-wrap: normal; text-align: left;&quot; class=&quot;lang-bash s-code-block&quot;&gt;&lt;code style=&quot;margin: 0px; padding: 0px; border: 0px; font-style: inherit; font-variant: inherit; font-weight: inherit; font-stretch: inherit; line-height: inherit; font-family: inherit; font-optical-sizing: inherit; font-kerning: inherit; font-feature-settings: inherit; font-variation-settings: inherit; font-size: var(--_pr-code-fs); vertical-align: baseline; box-sizing: inherit; background-color: transparent;&quot; class=&quot;hljs language-bash&quot;&gt;            total       used       free     shared    buffers     cached&lt;br/&gt;Mem:       7264256    1010952    6253304          0     371892     189088&lt;br/&gt;-/+ buffers/cache:     449972    6814284&lt;br/&gt;Swap:      8126456         28    8126428&lt;br/&gt;&lt;/code&gt;&lt;/pre&gt;&lt;div&gt;&lt;code style=&quot;margin: 0px; padding: 0px; border: 0px; font-style: inherit; font-variant: inherit; font-weight: inherit; font-stretch: inherit; line-height: inherit; font-family: inherit; font-optical-sizing: inherit; font-kerning: inherit; font-feature-settings: inherit; font-variation-settings: inherit; font-size: var(--_pr-code-fs); vertical-align: baseline; box-sizing: inherit; background-color: transparent;&quot; class=&quot;hljs language-bash&quot;&gt;&lt;br&gt;&lt;/code&gt;&lt;/div&gt;" style="rounded=1;whiteSpace=wrap;html=1;fontSize=12;glass=0;strokeWidth=1;shadow=0;" vertex="1" parent="WIyWlLk6GJQsqaUBKTNV-1">
          <mxGeometry x="320" y="1050" width="420" height="90" as="geometry" />
        </mxCell>
        <mxCell id="HacrxvTfYygHv3SHw1Ex-47" value="" style="rounded=0;html=1;jettySize=auto;orthogonalLoop=1;fontSize=11;endArrow=block;endFill=0;endSize=8;strokeWidth=1;shadow=0;labelBackgroundColor=none;edgeStyle=orthogonalEdgeStyle;" edge="1" parent="WIyWlLk6GJQsqaUBKTNV-1" source="HacrxvTfYygHv3SHw1Ex-45">
          <mxGeometry x="0.3333" y="20" relative="1" as="geometry">
            <mxPoint as="offset" />
            <mxPoint x="200" y="1160" as="sourcePoint" />
            <mxPoint x="200" y="1190" as="targetPoint" />
          </mxGeometry>
        </mxCell>
        <mxCell id="HacrxvTfYygHv3SHw1Ex-49" value="No" style="text;html=1;align=center;verticalAlign=middle;resizable=0;points=[];autosize=1;strokeColor=none;fillColor=none;" vertex="1" parent="WIyWlLk6GJQsqaUBKTNV-1">
          <mxGeometry x="200" y="1158" width="40" height="30" as="geometry" />
        </mxCell>
        <mxCell id="HacrxvTfYygHv3SHw1Ex-50" value="No" style="rounded=0;html=1;jettySize=auto;orthogonalLoop=1;fontSize=11;endArrow=block;endFill=0;endSize=8;strokeWidth=1;shadow=0;labelBackgroundColor=none;edgeStyle=orthogonalEdgeStyle;" edge="1" parent="WIyWlLk6GJQsqaUBKTNV-1">
          <mxGeometry x="-0.3333" y="21" relative="1" as="geometry">
            <mxPoint as="offset" />
            <mxPoint x="199" y="930" as="sourcePoint" />
            <mxPoint x="199" y="960" as="targetPoint" />
          </mxGeometry>
        </mxCell>
        <mxCell id="HacrxvTfYygHv3SHw1Ex-51" value="Yes" style="text;html=1;align=center;verticalAlign=middle;resizable=0;points=[];autosize=1;strokeColor=none;fillColor=none;" vertex="1" parent="WIyWlLk6GJQsqaUBKTNV-1">
          <mxGeometry x="270" y="858" width="40" height="30" as="geometry" />
        </mxCell>
        <mxCell id="HacrxvTfYygHv3SHw1Ex-52" value="No" style="text;html=1;align=center;verticalAlign=middle;resizable=0;points=[];autosize=1;strokeColor=none;fillColor=none;" vertex="1" parent="WIyWlLk6GJQsqaUBKTNV-1">
          <mxGeometry x="210" y="1040" width="40" height="30" as="geometry" />
        </mxCell>
        <mxCell id="HacrxvTfYygHv3SHw1Ex-58" value="&lt;div&gt;&lt;span style=&quot;background-color: initial;&quot;&gt;To list users with sudo permissions&lt;/span&gt;&lt;br&gt;&lt;/div&gt;" style="rounded=1;whiteSpace=wrap;html=1;shadow=0;strokeWidth=1;spacing=6;spacingTop=-4;" vertex="1" parent="WIyWlLk6GJQsqaUBKTNV-1">
          <mxGeometry x="350" y="960" width="290" height="60" as="geometry" />
        </mxCell>
        <mxCell id="HacrxvTfYygHv3SHw1Ex-64" value="" style="rounded=0;html=1;jettySize=auto;orthogonalLoop=1;fontSize=11;endArrow=block;endFill=0;endSize=8;strokeWidth=1;shadow=0;labelBackgroundColor=none;edgeStyle=orthogonalEdgeStyle;" edge="1" parent="WIyWlLk6GJQsqaUBKTNV-1">
          <mxGeometry y="60" relative="1" as="geometry">
            <mxPoint as="offset" />
            <mxPoint x="199" y="820" as="sourcePoint" />
            <mxPoint x="199" y="850" as="targetPoint" />
          </mxGeometry>
        </mxCell>
        <mxCell id="HacrxvTfYygHv3SHw1Ex-65" value="No" style="text;html=1;align=center;verticalAlign=middle;resizable=0;points=[];autosize=1;strokeColor=none;fillColor=none;" vertex="1" parent="WIyWlLk6GJQsqaUBKTNV-1">
          <mxGeometry x="200" y="820" width="40" height="30" as="geometry" />
        </mxCell>
        <mxCell id="HacrxvTfYygHv3SHw1Ex-66" value="Yes" style="text;html=1;align=center;verticalAlign=middle;resizable=0;points=[];autosize=1;strokeColor=none;fillColor=none;" vertex="1" parent="WIyWlLk6GJQsqaUBKTNV-1">
          <mxGeometry x="270" y="748" width="40" height="30" as="geometry" />
        </mxCell>
        <mxCell id="HacrxvTfYygHv3SHw1Ex-85" value="" style="edgeStyle=orthogonalEdgeStyle;rounded=0;orthogonalLoop=1;jettySize=auto;html=1;" edge="1" parent="WIyWlLk6GJQsqaUBKTNV-1">
          <mxGeometry relative="1" as="geometry">
            <mxPoint x="270" y="1120" as="sourcePoint" />
            <mxPoint x="320" y="1120" as="targetPoint" />
          </mxGeometry>
        </mxCell>
        <mxCell id="HacrxvTfYygHv3SHw1Ex-86" value="" style="edgeStyle=orthogonalEdgeStyle;rounded=0;orthogonalLoop=1;jettySize=auto;html=1;" edge="1" parent="WIyWlLk6GJQsqaUBKTNV-1" source="HacrxvTfYygHv3SHw1Ex-87" target="HacrxvTfYygHv3SHw1Ex-88">
          <mxGeometry relative="1" as="geometry" />
        </mxCell>
        <mxCell id="HacrxvTfYygHv3SHw1Ex-87" value="file getinfo" style="rhombus;whiteSpace=wrap;html=1;shadow=0;fontFamily=Helvetica;fontSize=12;align=center;strokeWidth=1;spacing=6;spacingTop=-4;" vertex="1" parent="WIyWlLk6GJQsqaUBKTNV-1">
          <mxGeometry x="130" y="1190" width="140" height="80" as="geometry" />
        </mxCell>
        <mxCell id="HacrxvTfYygHv3SHw1Ex-88" value="&lt;div style=&quot;color: rgb(212, 212, 212); background-color: rgb(30, 30, 30); font-family: Menlo, Monaco, &amp;quot;Courier New&amp;quot;, monospace; line-height: 18px;&quot;&gt;&quot;Error: Please provide a filename.&quot;&lt;/div&gt;" style="rounded=1;whiteSpace=wrap;html=1;shadow=0;strokeWidth=1;spacing=6;spacingTop=-4;" vertex="1" parent="WIyWlLk6GJQsqaUBKTNV-1">
          <mxGeometry x="320" y="1200" width="290" height="60" as="geometry" />
        </mxCell>
        <mxCell id="HacrxvTfYygHv3SHw1Ex-89" value="" style="rounded=0;html=1;jettySize=auto;orthogonalLoop=1;fontSize=11;endArrow=block;endFill=0;endSize=8;strokeWidth=1;shadow=0;labelBackgroundColor=none;edgeStyle=orthogonalEdgeStyle;" edge="1" parent="WIyWlLk6GJQsqaUBKTNV-1" source="HacrxvTfYygHv3SHw1Ex-91" target="HacrxvTfYygHv3SHw1Ex-93">
          <mxGeometry y="60" relative="1" as="geometry">
            <mxPoint as="offset" />
          </mxGeometry>
        </mxCell>
        <mxCell id="HacrxvTfYygHv3SHw1Ex-90" value="Yes" style="edgeStyle=orthogonalEdgeStyle;rounded=0;html=1;jettySize=auto;orthogonalLoop=1;fontSize=11;endArrow=block;endFill=0;endSize=8;strokeWidth=1;shadow=0;labelBackgroundColor=none;" edge="1" parent="WIyWlLk6GJQsqaUBKTNV-1" source="HacrxvTfYygHv3SHw1Ex-91">
          <mxGeometry x="0.0323" y="11" relative="1" as="geometry">
            <mxPoint x="-5" y="1" as="offset" />
            <mxPoint x="350" y="1330" as="targetPoint" />
          </mxGeometry>
        </mxCell>
        <mxCell id="HacrxvTfYygHv3SHw1Ex-91" value="file getinfo&amp;nbsp;&amp;lt;file-name&amp;gt;" style="rhombus;whiteSpace=wrap;html=1;shadow=0;fontFamily=Helvetica;fontSize=12;align=center;strokeWidth=1;spacing=6;spacingTop=-4;" vertex="1" parent="WIyWlLk6GJQsqaUBKTNV-1">
          <mxGeometry x="130" y="1300" width="140" height="90" as="geometry" />
        </mxCell>
        <mxCell id="HacrxvTfYygHv3SHw1Ex-92" value="Yes" style="edgeStyle=orthogonalEdgeStyle;rounded=0;html=1;jettySize=auto;orthogonalLoop=1;fontSize=11;endArrow=block;endFill=0;endSize=8;strokeWidth=1;shadow=0;labelBackgroundColor=none;" edge="1" parent="WIyWlLk6GJQsqaUBKTNV-1" source="HacrxvTfYygHv3SHw1Ex-93" target="HacrxvTfYygHv3SHw1Ex-94">
          <mxGeometry y="10" relative="1" as="geometry">
            <mxPoint as="offset" />
          </mxGeometry>
        </mxCell>
        <mxCell id="HacrxvTfYygHv3SHw1Ex-93" value="file getinfo&amp;nbsp;--size &amp;lt;file-name&amp;gt;" style="rhombus;whiteSpace=wrap;html=1;shadow=0;fontFamily=Helvetica;fontSize=12;align=center;strokeWidth=1;spacing=6;spacingTop=-4;" vertex="1" parent="WIyWlLk6GJQsqaUBKTNV-1">
          <mxGeometry x="70" y="1418" width="200" height="80" as="geometry" />
        </mxCell>
        <mxCell id="HacrxvTfYygHv3SHw1Ex-94" value="&lt;pre style=&quot;margin-top: 0px; margin-bottom: calc(1.5em); padding: var(--su12); border: 0px; font-variant-numeric: inherit; font-variant-east-asian: inherit; font-variant-alternates: inherit; font-variant-position: inherit; font-stretch: inherit; line-height: var(--lh-md); font-optical-sizing: inherit; font-kerning: inherit; font-feature-settings: inherit; font-variation-settings: inherit; vertical-align: baseline; box-sizing: inherit; width: auto; max-height: 600px; overflow: auto; background-color: var(--highlight-bg); border-radius: var(--br-md); --_cb-line-numbers-bg: var(--black-050); overflow-wrap: normal; text-align: left;&quot; class=&quot;lang-bash s-code-block&quot;&gt;&lt;font face=&quot;Helvetica&quot;&gt;Print file size&lt;/font&gt;&lt;font face=&quot;var(--ff-mono)&quot; color=&quot;rgba(0, 0, 0, 0)&quot;&gt;&lt;br&gt;&lt;/font&gt;&lt;/pre&gt;" style="rounded=1;whiteSpace=wrap;html=1;fontSize=12;glass=0;strokeWidth=1;shadow=0;" vertex="1" parent="WIyWlLk6GJQsqaUBKTNV-1">
          <mxGeometry x="320" y="1430" width="250" height="38" as="geometry" />
        </mxCell>
        <mxCell id="HacrxvTfYygHv3SHw1Ex-95" value="" style="rounded=0;html=1;jettySize=auto;orthogonalLoop=1;fontSize=11;endArrow=block;endFill=0;endSize=8;strokeWidth=1;shadow=0;labelBackgroundColor=none;edgeStyle=orthogonalEdgeStyle;" edge="1" parent="WIyWlLk6GJQsqaUBKTNV-1" source="HacrxvTfYygHv3SHw1Ex-93">
          <mxGeometry x="0.3333" y="20" relative="1" as="geometry">
            <mxPoint as="offset" />
            <mxPoint x="200" y="1500" as="sourcePoint" />
            <mxPoint x="200" y="1530" as="targetPoint" />
          </mxGeometry>
        </mxCell>
        <mxCell id="HacrxvTfYygHv3SHw1Ex-96" value="No" style="text;html=1;align=center;verticalAlign=middle;resizable=0;points=[];autosize=1;strokeColor=none;fillColor=none;" vertex="1" parent="WIyWlLk6GJQsqaUBKTNV-1">
          <mxGeometry x="200" y="1498" width="40" height="30" as="geometry" />
        </mxCell>
        <mxCell id="HacrxvTfYygHv3SHw1Ex-97" value="No" style="rounded=0;html=1;jettySize=auto;orthogonalLoop=1;fontSize=11;endArrow=block;endFill=0;endSize=8;strokeWidth=1;shadow=0;labelBackgroundColor=none;edgeStyle=orthogonalEdgeStyle;" edge="1" parent="WIyWlLk6GJQsqaUBKTNV-1">
          <mxGeometry x="-0.3333" y="21" relative="1" as="geometry">
            <mxPoint as="offset" />
            <mxPoint x="199" y="1270" as="sourcePoint" />
            <mxPoint x="199" y="1300" as="targetPoint" />
          </mxGeometry>
        </mxCell>
        <mxCell id="HacrxvTfYygHv3SHw1Ex-98" value="Yes" style="text;html=1;align=center;verticalAlign=middle;resizable=0;points=[];autosize=1;strokeColor=none;fillColor=none;" vertex="1" parent="WIyWlLk6GJQsqaUBKTNV-1">
          <mxGeometry x="270" y="1198" width="40" height="30" as="geometry" />
        </mxCell>
        <mxCell id="HacrxvTfYygHv3SHw1Ex-99" value="No" style="text;html=1;align=center;verticalAlign=middle;resizable=0;points=[];autosize=1;strokeColor=none;fillColor=none;" vertex="1" parent="WIyWlLk6GJQsqaUBKTNV-1">
          <mxGeometry x="210" y="1380" width="40" height="30" as="geometry" />
        </mxCell>
        <mxCell id="HacrxvTfYygHv3SHw1Ex-100" value="&lt;div&gt;Get file information&lt;br&gt;&lt;/div&gt;" style="rounded=1;whiteSpace=wrap;html=1;shadow=0;strokeWidth=1;spacing=6;spacingTop=-4;" vertex="1" parent="WIyWlLk6GJQsqaUBKTNV-1">
          <mxGeometry x="350" y="1300" width="290" height="60" as="geometry" />
        </mxCell>
        <mxCell id="HacrxvTfYygHv3SHw1Ex-104" value="" style="edgeStyle=orthogonalEdgeStyle;rounded=0;orthogonalLoop=1;jettySize=auto;html=1;" edge="1" parent="WIyWlLk6GJQsqaUBKTNV-1" source="HacrxvTfYygHv3SHw1Ex-105" target="HacrxvTfYygHv3SHw1Ex-106">
          <mxGeometry relative="1" as="geometry" />
        </mxCell>
        <mxCell id="HacrxvTfYygHv3SHw1Ex-105" value="file getinfo&amp;nbsp;--permissions &amp;lt;file-name&amp;gt;" style="rhombus;whiteSpace=wrap;html=1;shadow=0;fontFamily=Helvetica;fontSize=12;align=center;strokeWidth=1;spacing=6;spacingTop=-4;" vertex="1" parent="WIyWlLk6GJQsqaUBKTNV-1">
          <mxGeometry x="130" y="1530" width="140" height="80" as="geometry" />
        </mxCell>
        <mxCell id="HacrxvTfYygHv3SHw1Ex-106" value="&lt;div&gt;Print file permissions&lt;/div&gt;" style="rounded=1;whiteSpace=wrap;html=1;shadow=0;strokeWidth=1;spacing=6;spacingTop=-4;" vertex="1" parent="WIyWlLk6GJQsqaUBKTNV-1">
          <mxGeometry x="320" y="1540" width="290" height="60" as="geometry" />
        </mxCell>
        <mxCell id="HacrxvTfYygHv3SHw1Ex-107" value="" style="rounded=0;html=1;jettySize=auto;orthogonalLoop=1;fontSize=11;endArrow=block;endFill=0;endSize=8;strokeWidth=1;shadow=0;labelBackgroundColor=none;edgeStyle=orthogonalEdgeStyle;" edge="1" parent="WIyWlLk6GJQsqaUBKTNV-1" source="HacrxvTfYygHv3SHw1Ex-109">
          <mxGeometry y="60" relative="1" as="geometry">
            <mxPoint as="offset" />
            <mxPoint x="170" y="1758" as="targetPoint" />
          </mxGeometry>
        </mxCell>
        <mxCell id="HacrxvTfYygHv3SHw1Ex-108" value="Yes" style="edgeStyle=orthogonalEdgeStyle;rounded=0;html=1;jettySize=auto;orthogonalLoop=1;fontSize=11;endArrow=block;endFill=0;endSize=8;strokeWidth=1;shadow=0;labelBackgroundColor=none;" edge="1" parent="WIyWlLk6GJQsqaUBKTNV-1" source="HacrxvTfYygHv3SHw1Ex-109">
          <mxGeometry x="0.0323" y="11" relative="1" as="geometry">
            <mxPoint x="-5" y="1" as="offset" />
            <mxPoint x="350" y="1670" as="targetPoint" />
          </mxGeometry>
        </mxCell>
        <mxCell id="HacrxvTfYygHv3SHw1Ex-109" value="file getinfo&amp;nbsp;--owner &amp;lt;file-name&amp;gt;" style="rhombus;whiteSpace=wrap;html=1;shadow=0;fontFamily=Helvetica;fontSize=12;align=center;strokeWidth=1;spacing=6;spacingTop=-4;" vertex="1" parent="WIyWlLk6GJQsqaUBKTNV-1">
          <mxGeometry x="70" y="1640" width="200" height="90" as="geometry" />
        </mxCell>
        <mxCell id="HacrxvTfYygHv3SHw1Ex-110" value="Yes" style="edgeStyle=orthogonalEdgeStyle;rounded=0;html=1;jettySize=auto;orthogonalLoop=1;fontSize=11;endArrow=block;endFill=0;endSize=8;strokeWidth=1;shadow=0;labelBackgroundColor=none;exitX=1;exitY=0.5;exitDx=0;exitDy=0;" edge="1" parent="WIyWlLk6GJQsqaUBKTNV-1" target="HacrxvTfYygHv3SHw1Ex-111" source="HacrxvTfYygHv3SHw1Ex-118">
          <mxGeometry y="10" relative="1" as="geometry">
            <mxPoint as="offset" />
            <mxPoint x="270" y="1798" as="sourcePoint" />
          </mxGeometry>
        </mxCell>
        <mxCell id="HacrxvTfYygHv3SHw1Ex-111" value="&lt;pre style=&quot;margin-top: 0px; margin-bottom: calc(1.5em); padding: var(--su12); border: 0px; font-variant-numeric: inherit; font-variant-east-asian: inherit; font-variant-alternates: inherit; font-variant-position: inherit; font-stretch: inherit; line-height: var(--lh-md); font-family: var(--ff-mono); font-optical-sizing: inherit; font-kerning: inherit; font-feature-settings: inherit; font-variation-settings: inherit; font-size: var(--fs-body1); vertical-align: baseline; box-sizing: inherit; width: auto; max-height: 600px; overflow: auto; background-color: var(--highlight-bg); border-radius: var(--br-md); --_cb-line-numbers-bg: var(--black-050); color: var(--highlight-color); overflow-wrap: normal; text-align: left;&quot; class=&quot;lang-bash s-code-block&quot;&gt;&lt;code style=&quot;margin: 0px; padding: 0px; border: 0px; font-style: inherit; font-variant: inherit; font-weight: inherit; font-stretch: inherit; line-height: inherit; font-family: inherit; font-optical-sizing: inherit; font-kerning: inherit; font-feature-settings: inherit; font-variation-settings: inherit; font-size: var(--_pr-code-fs); vertical-align: baseline; box-sizing: inherit; background-color: transparent;&quot; class=&quot;hljs language-bash&quot;&gt;    &lt;/code&gt;Print last modified time&lt;/pre&gt;" style="rounded=1;whiteSpace=wrap;html=1;fontSize=12;glass=0;strokeWidth=1;shadow=0;" vertex="1" parent="WIyWlLk6GJQsqaUBKTNV-1">
          <mxGeometry x="320" y="1760" width="190" height="48" as="geometry" />
        </mxCell>
        <mxCell id="HacrxvTfYygHv3SHw1Ex-114" value="No" style="rounded=0;html=1;jettySize=auto;orthogonalLoop=1;fontSize=11;endArrow=block;endFill=0;endSize=8;strokeWidth=1;shadow=0;labelBackgroundColor=none;edgeStyle=orthogonalEdgeStyle;entryX=0.5;entryY=0;entryDx=0;entryDy=0;" edge="1" parent="WIyWlLk6GJQsqaUBKTNV-1" target="HacrxvTfYygHv3SHw1Ex-109">
          <mxGeometry x="-0.3333" y="21" relative="1" as="geometry">
            <mxPoint as="offset" />
            <mxPoint x="200" y="1600" as="sourcePoint" />
            <mxPoint x="200" y="1630" as="targetPoint" />
            <Array as="points">
              <mxPoint x="200" y="1615" />
              <mxPoint x="170" y="1615" />
            </Array>
          </mxGeometry>
        </mxCell>
        <mxCell id="HacrxvTfYygHv3SHw1Ex-115" value="Yes" style="text;html=1;align=center;verticalAlign=middle;resizable=0;points=[];autosize=1;strokeColor=none;fillColor=none;" vertex="1" parent="WIyWlLk6GJQsqaUBKTNV-1">
          <mxGeometry x="270" y="1538" width="40" height="30" as="geometry" />
        </mxCell>
        <mxCell id="HacrxvTfYygHv3SHw1Ex-116" value="No" style="text;html=1;align=center;verticalAlign=middle;resizable=0;points=[];autosize=1;strokeColor=none;fillColor=none;" vertex="1" parent="WIyWlLk6GJQsqaUBKTNV-1">
          <mxGeometry x="210" y="1720" width="40" height="30" as="geometry" />
        </mxCell>
        <mxCell id="HacrxvTfYygHv3SHw1Ex-117" value="&lt;div&gt;Print file owner&lt;br&gt;&lt;/div&gt;" style="rounded=1;whiteSpace=wrap;html=1;shadow=0;strokeWidth=1;spacing=6;spacingTop=-4;" vertex="1" parent="WIyWlLk6GJQsqaUBKTNV-1">
          <mxGeometry x="350" y="1640" width="290" height="60" as="geometry" />
        </mxCell>
        <mxCell id="HacrxvTfYygHv3SHw1Ex-118" value="file getinfo --last-modified &amp;lt;file-name&amp;gt;" style="rhombus;whiteSpace=wrap;html=1;shadow=0;fontFamily=Helvetica;fontSize=12;align=center;strokeWidth=1;spacing=6;spacingTop=-4;" vertex="1" parent="WIyWlLk6GJQsqaUBKTNV-1">
          <mxGeometry x="100" y="1760" width="140" height="90" as="geometry" />
        </mxCell>
        <mxCell id="HacrxvTfYygHv3SHw1Ex-119" value="" style="rounded=0;html=1;jettySize=auto;orthogonalLoop=1;fontSize=11;endArrow=block;endFill=0;endSize=8;strokeWidth=1;shadow=0;labelBackgroundColor=none;edgeStyle=orthogonalEdgeStyle;exitX=0.5;exitY=1;exitDx=0;exitDy=0;" edge="1" parent="WIyWlLk6GJQsqaUBKTNV-1" source="HacrxvTfYygHv3SHw1Ex-118">
          <mxGeometry y="60" relative="1" as="geometry">
            <mxPoint as="offset" />
            <mxPoint x="169.5" y="1898" as="targetPoint" />
            <mxPoint x="170" y="1860" as="sourcePoint" />
          </mxGeometry>
        </mxCell>
        <mxCell id="HacrxvTfYygHv3SHw1Ex-120" value="End" style="rounded=1;whiteSpace=wrap;html=1;fontSize=12;glass=0;strokeWidth=1;shadow=0;" vertex="1" parent="WIyWlLk6GJQsqaUBKTNV-1">
          <mxGeometry x="90" y="1900" width="160" height="40" as="geometry" />
        </mxCell>
      </root>
    </mxGraphModel>
  </diagram>
</mxfile>
